<svg width="114" height="127" viewBox="0 0 114 127" fill="none" xmlns="http://www.w3.org/2000/svg">
<path d="M23.4994 105.9V113H21.5494V110.22H19.1694V113H17.2194V105.9H19.1694V108.52H21.5494V105.9H23.4994ZM26.3594 105.9H28.5394L30.7994 113H28.8194L28.3894 111.61H26.4994L26.0794 113H24.0894L26.3594 105.9ZM28.0794 110.31L27.4494 107.81L26.7894 110.31H28.0794ZM36.7593 113V109.26L35.5693 111.89H34.5293L33.3393 109.26V113H31.3893V105.9H33.5193L35.0493 109.24L36.5893 105.9H38.7093V113H36.7593ZM45.9645 111.18C45.9645 111.607 45.8478 111.953 45.6145 112.22C45.3878 112.487 45.0811 112.683 44.6945 112.81C44.3078 112.937 43.8811 113 43.4145 113H39.9245V105.9H44.0445C44.3778 105.9 44.6645 105.99 44.9045 106.17C45.1511 106.343 45.3378 106.57 45.4645 106.85C45.5978 107.13 45.6645 107.42 45.6645 107.72C45.6645 108.047 45.5778 108.363 45.4045 108.67C45.2378 108.977 44.9845 109.207 44.6445 109.36C45.0511 109.48 45.3711 109.69 45.6045 109.99C45.8445 110.29 45.9645 110.687 45.9645 111.18ZM43.9845 110.78C43.9845 110.66 43.9611 110.557 43.9145 110.47C43.8745 110.377 43.8178 110.303 43.7445 110.25C43.6711 110.197 43.5845 110.17 43.4845 110.17H41.8745V111.36H43.4145C43.5211 111.36 43.6178 111.337 43.7045 111.29C43.7911 111.243 43.8578 111.177 43.9045 111.09C43.9578 111.003 43.9845 110.9 43.9845 110.78ZM41.8745 107.56V108.65H43.2045C43.2911 108.65 43.3745 108.637 43.4545 108.61C43.5345 108.577 43.6011 108.52 43.6545 108.44C43.7078 108.36 43.7345 108.247 43.7345 108.1C43.7345 107.967 43.7111 107.863 43.6645 107.79C43.6245 107.71 43.5678 107.653 43.4945 107.62C43.4278 107.58 43.3511 107.56 43.2645 107.56H41.8745ZM49.9288 113.06C49.3621 113.06 48.8754 112.967 48.4688 112.78C48.0621 112.593 47.7288 112.337 47.4688 112.01C47.2154 111.683 47.0288 111.31 46.9088 110.89C46.7888 110.463 46.7288 110.017 46.7288 109.55V105.9H48.6788V109.55C48.6788 109.783 48.7021 110.007 48.7488 110.22C48.7954 110.433 48.8688 110.623 48.9688 110.79C49.0688 110.957 49.1954 111.09 49.3488 111.19C49.5088 111.283 49.7021 111.33 49.9288 111.33C50.1621 111.33 50.3588 111.283 50.5188 111.19C50.6788 111.09 50.8054 110.957 50.8988 110.79C50.9988 110.617 51.0721 110.423 51.1188 110.21C51.1654 109.997 51.1888 109.777 51.1888 109.55V105.9H53.1388V109.55C53.1388 110.043 53.0721 110.503 52.9388 110.93C52.8121 111.357 52.6188 111.73 52.3588 112.05C52.0988 112.37 51.7654 112.62 51.3587 112.8C50.9588 112.973 50.4821 113.06 49.9288 113.06ZM54.2604 113V105.9H57.5204C57.8671 105.9 58.1871 105.97 58.4804 106.11C58.7737 106.25 59.0271 106.44 59.2404 106.68C59.4537 106.913 59.6171 107.177 59.7304 107.47C59.8504 107.763 59.9104 108.06 59.9104 108.36C59.9104 108.633 59.8704 108.897 59.7904 109.15C59.7104 109.403 59.5937 109.637 59.4404 109.85C59.2871 110.057 59.1037 110.237 58.8904 110.39L60.3904 113H58.2504L57.0004 110.82H56.2104V113H54.2604ZM56.2104 109.12H57.4404C57.5204 109.12 57.5971 109.09 57.6704 109.03C57.7437 108.97 57.8037 108.883 57.8504 108.77C57.9037 108.657 57.9304 108.52 57.9304 108.36C57.9304 108.193 57.9004 108.057 57.8404 107.95C57.7871 107.837 57.7171 107.75 57.6304 107.69C57.5504 107.63 57.4704 107.6 57.3904 107.6H56.2104V109.12ZM63.9905 113.05C63.5305 113.05 63.0905 112.97 62.6705 112.81C62.2572 112.643 61.8905 112.403 61.5705 112.09C61.2505 111.77 60.9972 111.387 60.8105 110.94C60.6305 110.487 60.5405 109.97 60.5405 109.39C60.5405 108.89 60.6339 108.427 60.8205 108C61.0072 107.573 61.2639 107.2 61.5905 106.88C61.9239 106.553 62.3105 106.3 62.7505 106.12C63.1905 105.94 63.6672 105.85 64.1805 105.85C64.8205 105.85 65.4005 105.99 65.9205 106.27C66.4405 106.543 66.8272 106.92 67.0805 107.4L65.6305 108.51C65.4905 108.23 65.2805 108.007 65.0005 107.84C64.7205 107.667 64.4239 107.58 64.1105 107.58C63.8772 107.58 63.6639 107.627 63.4705 107.72C63.2772 107.813 63.1072 107.943 62.9605 108.11C62.8205 108.277 62.7105 108.477 62.6305 108.71C62.5572 108.937 62.5205 109.187 62.5205 109.46C62.5205 109.74 62.5605 109.993 62.6405 110.22C62.7205 110.447 62.8305 110.643 62.9705 110.81C63.1172 110.97 63.2905 111.097 63.4905 111.19C63.6905 111.277 63.9139 111.32 64.1605 111.32C64.4739 111.32 64.7739 111.243 65.0605 111.09C65.3472 110.93 65.6072 110.707 65.8405 110.42V112.32C65.3072 112.807 64.6905 113.05 63.9905 113.05ZM65.7405 110.62H64.4305V109.22H67.3505V113H65.7405V110.62ZM71.4131 113.06C70.8465 113.06 70.3598 112.967 69.9531 112.78C69.5465 112.593 69.2131 112.337 68.9531 112.01C68.6998 111.683 68.5131 111.31 68.3931 110.89C68.2731 110.463 68.2131 110.017 68.2131 109.55V105.9H70.1631V109.55C70.1631 109.783 70.1865 110.007 70.2331 110.22C70.2798 110.433 70.3531 110.623 70.4531 110.79C70.5531 110.957 70.6798 111.09 70.8331 111.19C70.9931 111.283 71.1865 111.33 71.4131 111.33C71.6465 111.33 71.8431 111.283 72.0031 111.19C72.1631 111.09 72.2898 110.957 72.3831 110.79C72.4831 110.617 72.5565 110.423 72.6031 110.21C72.6498 109.997 72.6731 109.777 72.6731 109.55V105.9H74.6231V109.55C74.6231 110.043 74.5565 110.503 74.4231 110.93C74.2965 111.357 74.1031 111.73 73.8431 112.05C73.5831 112.37 73.2498 112.62 72.8431 112.8C72.4431 112.973 71.9665 113.06 71.4131 113.06ZM80.8048 111.3V113H75.7448V105.9H80.7148V107.6H77.6948V108.6H80.2748V110.18H77.6948V111.3H80.8048ZM81.7116 113V105.9H84.9716C85.3182 105.9 85.6382 105.97 85.9316 106.11C86.2249 106.25 86.4782 106.44 86.6916 106.68C86.9049 106.913 87.0682 107.177 87.1816 107.47C87.3016 107.763 87.3616 108.06 87.3616 108.36C87.3616 108.633 87.3216 108.897 87.2416 109.15C87.1616 109.403 87.0449 109.637 86.8916 109.85C86.7382 110.057 86.5549 110.237 86.3416 110.39L87.8416 113H85.7016L84.4516 110.82H83.6616V113H81.7116ZM83.6616 109.12H84.8916C84.9716 109.12 85.0482 109.09 85.1216 109.03C85.1949 108.97 85.2549 108.883 85.3016 108.77C85.3549 108.657 85.3816 108.52 85.3816 108.36C85.3816 108.193 85.3516 108.057 85.2916 107.95C85.2382 107.837 85.1682 107.75 85.0816 107.69C85.0016 107.63 84.9216 107.6 84.8416 107.6H83.6616V109.12ZM88.4596 113V105.9H90.4096V113H88.4596ZM93.2734 105.9H95.4534L97.7134 113H95.7334L95.3034 111.61H93.4134L92.9934 113H91.0034L93.2734 105.9ZM94.9934 110.31L94.3634 107.81L93.7034 110.31H94.9934ZM30.124 117.9H32.304L34.564 125H32.584L32.154 123.61H30.264L29.844 125H27.854L30.124 117.9ZM31.844 122.31L31.214 119.81L30.554 122.31H31.844ZM35.1539 125V117.9H38.4139C38.7606 117.9 39.0806 117.97 39.3739 118.11C39.6673 118.25 39.9206 118.44 40.1339 118.68C40.3473 118.913 40.5106 119.177 40.6239 119.47C40.7439 119.763 40.8039 120.06 40.8039 120.36C40.8039 120.633 40.7639 120.897 40.6839 121.15C40.6039 121.403 40.4873 121.637 40.3339 121.85C40.1806 122.057 39.9973 122.237 39.7839 122.39L41.2839 125H39.1439L37.8939 122.82H37.1039V125H35.1539ZM37.1039 121.12H38.3339C38.4139 121.12 38.4906 121.09 38.5639 121.03C38.6373 120.97 38.6973 120.883 38.7439 120.77C38.7973 120.657 38.8239 120.52 38.8239 120.36C38.8239 120.193 38.7939 120.057 38.7339 119.95C38.6806 119.837 38.6106 119.75 38.5239 119.69C38.4439 119.63 38.3639 119.6 38.2839 119.6H37.1039V121.12ZM47.3343 119.6H45.2943V125H43.3443V119.6H41.2943V117.9H47.3343V119.6ZM53.1046 123.3V125H48.0446V117.9H53.0146V119.6H49.9946V120.6H52.5746V122.18H49.9946V123.3H53.1046ZM58.3114 120.22C58.3114 120.22 58.2547 120.187 58.1414 120.12C58.028 120.053 57.878 119.98 57.6914 119.9C57.5047 119.813 57.3014 119.737 57.0814 119.67C56.8614 119.603 56.6447 119.57 56.4314 119.57C56.2647 119.57 56.128 119.597 56.0214 119.65C55.9147 119.703 55.8614 119.793 55.8614 119.92C55.8614 120.04 55.9147 120.137 56.0214 120.21C56.128 120.283 56.278 120.35 56.4714 120.41C56.6714 120.47 56.908 120.543 57.1814 120.63C57.6214 120.763 58.0014 120.917 58.3214 121.09C58.6414 121.263 58.888 121.487 59.0614 121.76C59.2347 122.027 59.3214 122.383 59.3214 122.83C59.3214 123.257 59.2447 123.617 59.0914 123.91C58.938 124.197 58.7314 124.427 58.4714 124.6C58.2114 124.773 57.9214 124.9 57.6014 124.98C57.2814 125.053 56.9547 125.09 56.6214 125.09C56.2814 125.09 55.9247 125.057 55.5514 124.99C55.1847 124.917 54.828 124.82 54.4814 124.7C54.1347 124.573 53.818 124.427 53.5314 124.26L54.3714 122.55C54.3714 122.55 54.438 122.59 54.5714 122.67C54.7047 122.75 54.8814 122.84 55.1014 122.94C55.3214 123.04 55.5647 123.13 55.8314 123.21C56.1047 123.29 56.378 123.33 56.6514 123.33C56.8647 123.33 57.0114 123.303 57.0914 123.25C57.178 123.19 57.2214 123.113 57.2214 123.02C57.2214 122.88 57.148 122.773 57.0014 122.7C56.8547 122.62 56.6614 122.547 56.4214 122.48C56.188 122.407 55.928 122.323 55.6414 122.23C55.228 122.09 54.888 121.933 54.6214 121.76C54.3547 121.58 54.158 121.37 54.0314 121.13C53.9047 120.883 53.8414 120.587 53.8414 120.24C53.8414 119.713 53.9647 119.273 54.2114 118.92C54.458 118.567 54.7814 118.3 55.1814 118.12C55.588 117.933 56.0247 117.84 56.4914 117.84C56.838 117.84 57.1714 117.883 57.4914 117.97C57.818 118.05 58.1214 118.15 58.4014 118.27C58.688 118.39 58.938 118.503 59.1514 118.61L58.3114 120.22ZM61.6475 117.9H63.8275L66.0875 125H64.1075L63.6775 123.61H61.7875L61.3675 125H59.3775L61.6475 117.9ZM63.3675 122.31L62.7375 119.81L62.0775 122.31H63.3675ZM68.6274 121.51V125H66.6774V117.9H68.1974L71.0474 121.51V117.9H72.9974V125H71.4474L68.6274 121.51ZM75.8564 117.9H78.0364L80.2964 125H78.3164L77.8864 123.61H75.9964L75.5764 125H73.5864L75.8564 117.9ZM77.5764 122.31L76.9464 119.81L76.2864 122.31H77.5764ZM80.8864 125V117.9H82.8364V123.3H86.0564V125H80.8864Z" fill="#949494"/>
<path d="M28.4132 14.1081C28.4132 14.1081 23.6945 10.6126 22.908 10.6126C22.1216 10.6126 16.694 22.7164 20.2852 32.8507C20.9383 35.3843 26.4739 34.2985 30.4062 34.2985C25.6875 34.2985 26.0538 43.8198 27.6267 43.8198C26.0538 43.8198 24.4809 51.6847 29.1997 51.6847C24.4809 51.6847 24.4809 59.5495 29.1997 59.5495V66.5405C23.6945 66.5405 25.2674 73.5315 25.2674 84.018C18.1892 84.018 18.1892 98 25.2674 98H93.6893C99.981 98 99.981 84.018 92.9029 84.018C92.9824 74.3382 94.4758 66.5405 88.1841 66.5405C95.0493 66.5405 95.0493 52.7575 89.8256 52.7575C93.4169 52.7575 92.4375 40.4515 92.4375 33.5746C96.3553 33.5746 97.0083 32.1269 97.0083 27.7836C97.0083 23.4403 96.3553 21.9925 93.0905 21.973H55.8717C55.8717 16.7297 46.5018 4.4955 45.7153 4.4955C44.9289 4.4955 41.783 10.6126 41.783 10.6126C41.783 10.6126 33.9184 1 33.132 1C32.3455 1 28.4132 14.1081 28.4132 14.1081Z" fill="#2A0B00" stroke="#2A0B00"/>
<path d="M28.3883 44.9976C28.6387 45.192 29.067 45.4578 29.6733 45.7949C30.2927 46.132 30.8791 46.3005 31.4326 46.3005C31.9993 46.3005 32.2827 46.0866 32.2827 45.6588C32.2827 45.4643 32.2036 45.2958 32.0455 45.1531C31.8873 44.9976 31.5974 44.8226 31.1757 44.6281C30.7539 44.4336 30.4376 44.2845 30.2268 44.1808C30.0159 44.0641 29.7326 43.8826 29.3767 43.6363C29.0341 43.377 28.7705 43.1113 28.586 42.839C28.0589 42.1001 27.7953 41.1601 27.7953 40.0193C27.7953 38.8784 28.2236 37.9191 29.0802 37.1412C29.95 36.3504 31.0834 35.955 32.4804 35.955C33.4292 35.955 34.3056 36.0587 35.1095 36.2661C35.9135 36.4606 36.3286 36.7199 36.3549 37.044C36.3549 37.0829 36.3549 37.1218 36.3549 37.1607C36.3549 37.6144 36.21 38.1913 35.92 38.8914C35.6301 39.5785 35.4258 39.961 35.3072 40.0387C34.4638 39.6109 33.706 39.397 33.0339 39.397C32.3749 39.397 32.0455 39.6304 32.0455 40.0971C32.0455 40.3823 32.2893 40.6351 32.7769 40.8555C32.8823 40.9073 33.0339 40.9786 33.2316 41.0694C33.4292 41.1601 33.6533 41.2703 33.9037 41.4C34.1673 41.5167 34.444 41.6722 34.7339 41.8667C35.0371 42.0482 35.3599 42.2945 35.7026 42.6057C36.4011 43.2539 36.7503 44.1095 36.7503 45.1726C36.7503 46.5598 36.3615 47.6941 35.584 48.5757C34.8064 49.4573 33.6072 49.911 31.9862 49.937C31.1954 49.937 30.4772 49.8721 29.8314 49.7425C29.1988 49.6129 28.6453 49.3601 28.1709 48.9841C27.6964 48.6081 27.4592 48.1544 27.4592 47.6228C27.4592 47.0913 27.5581 46.5663 27.7558 46.0477C27.9534 45.5161 28.1643 45.1661 28.3883 44.9976Z" fill="#FFA244"/>
<path d="M52.214 49.762C51.0411 49.762 50.4547 49.6323 50.4547 49.373L50.0395 41.575L47.6278 49.4703C47.5751 49.6258 47.127 49.7036 46.2836 49.7036C45.4401 49.7036 45.0052 49.6323 44.9788 49.4897L42.488 41.4972L42.2113 49.2563C42.1981 49.4508 41.9477 49.5869 41.4601 49.6647C40.9725 49.7295 40.5639 49.762 40.2345 49.762C39.9182 49.762 39.6085 49.7425 39.3054 49.7036C38.6728 49.6129 38.3631 49.4508 38.3762 49.2175L38.8309 36.5773C38.8309 36.2661 39.6348 36.1106 41.2426 36.1106C41.7171 36.1106 42.297 36.1495 42.9823 36.2272C43.6676 36.2921 44.0497 36.4282 44.1288 36.6356L46.3429 42.7612L48.2801 36.6162C48.3988 36.2791 49.3081 36.1106 51.0082 36.1106C51.4958 36.1106 52.0757 36.1495 52.7478 36.2272C53.4331 36.2921 53.7757 36.4152 53.7757 36.5967L54.349 49.3536C54.349 49.4962 54.092 49.5999 53.578 49.6647C53.0641 49.7295 52.6094 49.762 52.214 49.762Z" fill="#FFA244"/>
<path d="M65.6016 49.7814C64.4551 49.7814 63.8357 49.5999 63.7434 49.2369L63.091 46.7283H59.9479L59.3746 49.1397C59.2955 49.5416 58.663 49.7425 57.4769 49.7425C56.8443 49.7425 56.3764 49.7101 56.0733 49.6453C55.7702 49.5675 55.6186 49.5091 55.6186 49.4703L59.1176 36.305C59.1176 36.2013 60.0204 36.1495 61.8259 36.1495C63.6314 36.1495 64.5341 36.2013 64.5341 36.305L67.954 49.4897C67.954 49.5805 67.6509 49.6518 67.0447 49.7036C66.4385 49.7555 65.9574 49.7814 65.6016 49.7814ZM60.4421 44.2586H62.5178L61.6282 40.2332H61.5096L60.4421 44.2586Z" fill="#FFA244"/>
<path d="M69.7781 44.9976C70.0285 45.192 70.4568 45.4578 71.0631 45.7949C71.6825 46.132 72.2689 46.3005 72.8224 46.3005C73.3891 46.3005 73.6725 46.0866 73.6725 45.6588C73.6725 45.4643 73.5934 45.2958 73.4353 45.1531C73.2771 44.9976 72.9872 44.8226 72.5654 44.6281C72.1437 44.4336 71.8274 44.2845 71.6166 44.1808C71.4057 44.0641 71.1224 43.8826 70.7665 43.6363C70.4239 43.377 70.1603 43.1113 69.9758 42.839C69.4487 42.1001 69.1851 41.1601 69.1851 40.0193C69.1851 38.8784 69.6134 37.9191 70.47 37.1412C71.3398 36.3504 72.4732 35.955 73.8702 35.955C74.819 35.955 75.6954 36.0587 76.4993 36.2661C77.3032 36.4606 77.7184 36.7199 77.7447 37.044C77.7447 37.0829 77.7447 37.1218 77.7447 37.1607C77.7447 37.6144 77.5998 38.1913 77.3098 38.8914C77.0199 39.5785 76.8156 39.961 76.697 40.0387C75.8536 39.6109 75.0958 39.397 74.4237 39.397C73.7647 39.397 73.4353 39.6304 73.4353 40.0971C73.4353 40.3823 73.6791 40.6351 74.1667 40.8555C74.2721 40.9073 74.4237 40.9786 74.6213 41.0694C74.819 41.1601 75.0431 41.2703 75.2935 41.4C75.557 41.5167 75.8338 41.6722 76.1237 41.8667C76.4268 42.0482 76.7497 42.2945 77.0924 42.6057C77.7909 43.2539 78.1401 44.1095 78.1401 45.1726C78.1401 46.5598 77.7513 47.6941 76.9738 48.5757C76.1962 49.4573 74.9969 49.911 73.3759 49.937C72.5852 49.937 71.867 49.8721 71.2212 49.7425C70.5886 49.6129 70.0351 49.3601 69.5607 48.9841C69.0862 48.6081 68.849 48.1544 68.849 47.6228C68.849 47.0913 68.9479 46.5663 69.1455 46.0477C69.3432 45.5161 69.5541 45.1661 69.7781 44.9976Z" fill="#FFA244"/>
<path d="M90.52 49.4119C90.52 49.6323 89.8544 49.7425 88.5234 49.7425C87.1923 49.7425 86.5268 49.6323 86.5268 49.4119V44.9392H83.7592V49.4119C83.7592 49.6323 83.0937 49.7425 81.7626 49.7425C80.4316 49.7425 79.766 49.6323 79.766 49.4119V36.5189C79.766 36.2467 80.4316 36.1106 81.7626 36.1106C83.0937 36.1106 83.7592 36.2467 83.7592 36.5189V41.0888H86.5268V36.5578C86.5268 36.3763 86.8563 36.2467 87.5152 36.1689C87.8578 36.143 88.1939 36.13 88.5234 36.13L89.5316 36.1689C90.1905 36.2467 90.52 36.3763 90.52 36.5578V49.4119Z" fill="#FFA244"/>
<path d="M41.095 63.6546C41.095 63.8308 39.7907 63.919 37.1821 63.919C34.5735 63.919 33.2692 63.8308 33.2692 63.6546V57.0172H28.5264C28.0784 57.0172 27.7622 56.8145 27.5778 56.409C27.4988 56.2151 27.4592 56.0168 27.4592 55.8141C27.4592 55.6113 27.4988 55.413 27.5778 55.2191C27.7622 54.8136 28.0784 54.6109 28.5264 54.6109H45.7193C46.1672 54.6109 46.4834 54.8136 46.6679 55.2191C46.7469 55.413 46.7864 55.6113 46.7864 55.8141C46.7864 56.0168 46.7469 56.2151 46.6679 56.409C46.4834 56.8145 46.1672 57.0172 45.7193 57.0172H41.095V63.6546Z" fill="#FFA244"/>
<path d="M70.5385 63.6413C70.5385 63.7912 69.2078 63.8661 66.5465 63.8661C63.8853 63.8661 62.5546 63.7912 62.5546 63.6413V60.6003H57.0213V63.6413C57.0213 63.7912 55.6906 63.8661 53.0294 63.8661C50.3681 63.8661 49.0374 63.7912 49.0374 63.6413V54.8753C49.0374 54.6902 50.3681 54.5977 53.0294 54.5977C55.6906 54.5977 57.0213 54.6902 57.0213 54.8753V57.9824H62.5546V54.9018C62.5546 54.7784 63.2134 54.6902 64.5308 54.6373C65.2159 54.6197 65.8878 54.6109 66.5465 54.6109L68.5623 54.6373C69.8797 54.6902 70.5385 54.7784 70.5385 54.9018V63.6413Z" fill="#FFA244"/>
<path d="M87.3185 58.2865C87.8192 58.2865 88.0695 58.595 88.0695 59.2121C88.0695 59.3972 88.0036 59.6175 87.8719 59.8731C87.7665 60.1199 87.5557 60.2434 87.2395 60.2434H82.2199V61.5655H89.4923C89.9403 61.5655 90.2433 61.7594 90.4014 62.1473C90.4804 62.3148 90.52 62.4955 90.52 62.6894C90.52 62.8745 90.4409 63.1169 90.2828 63.4166C90.1247 63.7163 89.8612 63.8661 89.4923 63.8661H75.9752C74.9739 63.8661 74.4733 63.7295 74.4733 63.4562V54.9547C74.4733 54.7255 74.7763 54.6109 75.3823 54.6109H89.5319C90.0852 54.6109 90.3619 55.0031 90.3619 55.7876C90.3619 56.5633 90.0852 56.9511 89.5319 56.9511H82.2199V58.2865H87.3185Z" fill="#FFA244"/>
<path d="M33.132 80.9686C33.132 81.1469 32.2433 81.236 30.4658 81.236L28.8774 81.1826C27.932 81.135 27.4592 81.0518 27.4592 80.933V68.9718C27.4592 68.7698 28.4047 68.6688 30.2956 68.6688C32.1866 68.6688 33.132 68.7698 33.132 68.9718V73.5352L36.5924 68.9718C36.7248 68.8054 37.4812 68.7223 38.8616 68.7223C41.3765 68.7223 42.7002 68.8589 42.8325 69.1323C42.8325 69.156 42.8231 69.1798 42.8042 69.2036L37.8688 74.8009L43.5984 79.7743C43.5984 79.7981 43.4187 79.8991 43.0594 80.0774C42.1896 80.5527 41.1685 80.9271 39.9961 81.2004C39.6368 81.2836 39.2776 81.3252 38.9183 81.3252L38.2376 81.2895C37.6325 81.1944 37.1597 80.9508 36.8194 80.5587L33.5859 76.6726H33.132V80.9686Z" fill="#FFA244"/>
<path d="M46.9203 78.1522V71.8061H44.9064C44.585 71.8061 44.3581 71.5506 44.2257 71.0396C44.169 70.7901 44.1406 70.5346 44.1406 70.2731C44.1406 70.0117 44.169 69.7562 44.2257 69.5066C44.3581 68.9956 44.585 68.7401 44.9064 68.7401H54.4367C54.7582 68.7401 54.9756 68.9956 55.0891 69.5066C55.1647 69.7562 55.2026 70.0117 55.2026 70.2731C55.2026 70.5346 55.1647 70.7901 55.0891 71.0396C54.9756 71.5506 54.7582 71.8061 54.4367 71.8061H52.5363V78.1522H54.5218C54.8433 78.1522 55.0702 78.4077 55.2026 78.9187C55.2782 79.1682 55.316 79.4237 55.316 79.6852C55.316 79.9466 55.2782 80.2021 55.2026 80.4517C55.0702 80.9627 54.8433 81.2182 54.5218 81.2182H44.9632C44.6417 81.2182 44.4242 80.9627 44.3108 80.4517C44.2351 80.2021 44.1973 79.9466 44.1973 79.6852C44.1973 79.4237 44.2351 79.1682 44.3108 78.9187C44.4242 78.4077 44.6417 78.1522 44.9632 78.1522H46.9203Z" fill="#FFA244"/>
<path d="M72.7517 80.826C72.7517 81.0756 71.8629 81.2004 70.0855 81.2004C68.308 81.2004 67.3436 81.1113 67.1923 80.933L62.4556 75.3713V80.9152C62.4556 81.1291 61.5763 81.236 59.8177 81.236C58.078 81.236 57.2082 81.1291 57.2082 80.9152V68.9896C57.2082 68.8114 57.9551 68.7223 59.449 68.7223C60.0352 68.7223 60.7159 68.7579 61.4912 68.8292C62.2854 68.8886 62.7676 69.0075 62.9377 69.1857L67.476 74.6761V69.0788C67.476 68.853 68.3553 68.7401 70.1138 68.7401C71.8724 68.7401 72.7517 68.853 72.7517 69.0788V80.826Z" fill="#FFA244"/>
<path d="M86.0952 77.4926L86.1519 75.0683C86.1519 74.9019 86.4261 74.7949 86.9745 74.7474C87.5228 74.688 87.9767 74.6583 88.3359 74.6583L89.4421 74.7118C90.1607 74.7831 90.52 74.9078 90.52 75.0861L90.4065 80.6656C90.0283 80.832 89.2625 80.9984 88.109 81.1647C86.9745 81.3192 85.6697 81.3965 84.1948 81.3965C81.4529 81.3965 79.2405 80.8379 77.5576 79.7208C75.8747 78.6037 75.0332 76.9638 75.0332 74.8009C75.0332 72.9589 75.8558 71.4615 77.5009 70.3088C79.146 69.156 81.4246 68.5797 84.3366 68.5797C85.6603 68.5797 86.8516 68.6628 87.9105 68.8292C88.9883 68.9837 89.7258 69.1976 90.1229 69.4709C90.1418 69.566 90.1512 69.7443 90.1512 70.0057C90.1512 70.2672 90.0094 70.6415 89.7258 71.1288C89.4421 71.6041 89.1207 71.9606 88.7614 72.1983C88.4021 72.436 88.1374 72.5548 87.9672 72.5548C87.8159 72.5548 87.6457 72.5132 87.4567 72.43C87.2865 72.335 86.9366 72.2399 86.4072 72.1448C85.8777 72.0379 85.3672 71.9844 84.8755 71.9844C83.7031 71.9844 82.7482 72.2221 82.0108 72.6974C81.2922 73.1728 80.9329 73.9096 80.9329 74.9078C80.9329 75.9061 81.3017 76.6667 82.0391 77.1896C82.7955 77.7006 83.6559 77.9561 84.6203 77.9561C85.6035 77.9561 86.0952 77.8016 86.0952 77.4926Z" fill="#FFA244"/>
<rect x="22.5708" y="86.4179" width="72.4787" height="8.68657" rx="3" fill="#8D1F1F"/>
<rect x="22.5708" y="23.4403" width="72.4787" height="8.68657" rx="3" fill="#8D1F1F"/>
<path d="M42.5229 14.9114C42.514 14.8994 42.5051 14.8873 42.4962 14.8753C41.7315 13.8404 40.6988 12.4613 39.6297 11.0888C38.5636 9.72002 37.4495 8.34248 36.5246 7.31805C36.0653 6.80922 35.6315 6.36385 35.2613 6.04736C35.0789 5.89141 34.8821 5.74086 34.6841 5.63061C34.5445 5.55293 34.1655 5.35229 33.7092 5.4598C33.253 5.56731 32.9803 5.92151 32.8813 6.05542C32.7408 6.24544 32.6163 6.47169 32.5069 6.69641C32.2848 7.15248 32.052 7.75492 31.819 8.4269C31.35 9.77978 30.8376 11.5406 30.3658 13.2718C29.8927 15.0077 29.4552 16.7332 29.1363 18.0234C29.1326 18.0385 29.1289 18.0535 29.1252 18.0684C28.7393 17.5658 28.2929 16.9968 27.8288 16.4306C27.1566 15.6103 26.4292 14.7734 25.7863 14.151C25.468 13.8428 25.1418 13.559 24.8332 13.3558C24.6793 13.2544 24.5008 13.1537 24.3075 13.0851C24.1255 13.0205 23.8388 12.9514 23.5114 13.0285C23.0639 13.134 22.7959 13.4715 22.6888 13.617C22.548 13.8084 22.4287 14.0336 22.3272 14.2547C22.1211 14.7035 21.918 15.2922 21.7262 15.9544C21.3399 17.2881 20.9633 19.0468 20.6919 20.8753C20.4208 22.702 20.2491 24.6359 20.2867 26.3138C20.3055 27.1526 20.377 27.9514 20.5241 28.6521C20.6686 29.3399 20.9008 30.0081 21.2902 30.5226C21.5967 30.9276 22.0539 31.1442 22.459 31.2726C22.8844 31.4076 23.3854 31.4862 23.9239 31.5284C25.0036 31.613 26.3772 31.5608 27.9129 31.4125C30.9933 31.1149 34.8696 30.4156 38.6616 29.5253C42.4526 28.6353 46.2003 27.5447 49.0198 26.4527C50.4231 25.9092 51.6396 25.3491 52.5242 24.7923C52.9639 24.5156 53.3661 24.2124 53.6711 23.8792C53.9643 23.5589 54.2757 23.0915 54.283 22.5087C54.2963 21.4368 53.8388 19.969 53.2442 18.5001C52.6303 16.9832 51.8021 15.3063 50.9431 13.7556C50.0849 12.2063 49.1819 10.7578 48.4116 9.702C48.0297 9.17848 47.66 8.72326 47.3295 8.39784C47.1669 8.23774 46.9828 8.07794 46.7859 7.95929C46.6316 7.86626 46.2613 7.66768 45.8023 7.77585C45.4749 7.853 45.2384 8.04544 45.0958 8.18649C44.9443 8.33637 44.8183 8.50882 44.7148 8.67084C44.5075 8.99558 44.3136 9.40193 44.1358 9.82701C43.7769 10.6855 43.4194 11.7781 43.1063 12.8306C42.8901 13.5571 42.691 14.2781 42.5229 14.9114Z" fill="#FFD87D" stroke="#2A0B00" stroke-width="2"/>
</svg>
